<svg width="87" height="1" viewBox="0 0 87 1" fill="none" xmlns="http://www.w3.org/2000/svg">
<path fill-rule="evenodd" clip-rule="evenodd" d="M0.988636 1H0V0H0.988636V1ZM4.94318 1H2.96591V0H4.94318V1ZM8.89773 1H6.92045V0H8.89773V1ZM12.8523 1H10.875V0H12.8523V1ZM16.8068 1H14.8295V0H16.8068V1ZM20.7614 1H18.7841V0H20.7614V1ZM24.7159 1H22.7386V0H24.7159V1ZM28.6705 1H26.6932V0H28.6705V1ZM32.625 1H30.6477V0H32.625V1ZM36.5795 1H34.6023V0H36.5795V1ZM40.5341 1H38.5568V0H40.5341V1ZM44.4886 1H42.5114V0H44.4886V1ZM48.4432 1H46.4659V0H48.4432V1ZM52.3977 1H50.4204V0H52.3977V1ZM56.3523 1H54.375V0H56.3523V1ZM60.3068 1H58.3295V0H60.3068V1ZM64.2614 1H62.2841V0H64.2614V1ZM68.2159 1H66.2386V0H68.2159V1ZM72.1704 1H70.1932V0H72.1704V1ZM76.125 1H74.1477V0H76.125V1ZM80.0795 1H78.1023V0H80.0795V1ZM84.0341 1H82.0568V0H84.0341V1ZM87 1H86.0113V0H87V1Z" fill="black"/>
</svg>
