<svg width="75" height="73" viewBox="0 0 75 73" fill="none" xmlns="http://www.w3.org/2000/svg">
<path d="M73.739 15.0025L73.6096 14.8731C71.9283 13.1918 68.9537 13.1918 67.2724 14.8731L60.5472 21.7277C60.1592 22.1157 59.6419 22.1157 59.2538 21.7277L49.8124 12.9332C48.9072 12.1572 47.7432 11.6398 46.4498 11.6398H32.3525C31.9646 11.6398 31.7058 11.7692 31.5765 11.8986L19.6779 23.2798C17.9965 25.0905 17.8671 27.9358 19.4191 29.6171C20.1952 30.5224 21.359 31.0397 22.6524 31.0397C23.9458 31.0397 25.1097 30.5224 25.8857 29.6171L34.2923 20.6932H37.2669L17.6087 42.6796H5.45152C2.47694 42.6796 0.148909 44.8782 0.019541 47.5942C-0.109827 49.0168 0.407497 50.4396 1.44215 51.4742C2.47679 52.3795 3.77018 53.0262 5.19278 53.0262H23.2994C23.6874 53.0262 23.9461 52.8968 24.2047 52.6382L33.5167 42.6797L41.2765 50.8277L38.9485 65.8302C38.3018 68.4168 39.5952 70.8742 41.7939 71.9089C42.5699 72.2968 43.2165 72.4262 43.9925 72.4262C44.7686 72.4262 45.5445 72.2968 46.3206 71.9089C47.6139 71.2622 48.6486 69.969 49.0365 68.4168L53.0458 46.8183C53.0458 46.4303 52.9164 45.913 52.6578 45.6543L41.9232 34.9197L50.4591 26.3838L56.4084 32.3331C58.0898 34.0144 60.9351 34.0144 62.6163 32.3331L73.7389 21.2105C75.4204 19.5291 75.4204 16.6838 73.739 15.0025ZM71.9283 19.3998L60.8058 30.5224C60.0297 31.1691 58.8658 31.1691 58.2191 30.5224L51.3646 23.6678C50.8472 23.1505 50.0712 23.1505 49.5539 23.6678L39.2072 34.0144C38.9485 34.2732 38.8193 34.5317 38.8193 34.9197C38.8193 35.3077 38.9486 35.5664 39.3366 35.9543L50.4591 47.0769L46.5791 67.8994C46.3204 68.5461 45.8031 69.1927 45.1565 69.5807C44.5098 69.8394 43.7339 69.9687 42.9579 69.5807C41.7939 69.0634 41.2765 67.77 41.5353 66.3474L43.9925 50.5688C43.9925 50.1808 43.8631 49.7927 43.6046 49.5341L34.422 39.9636C34.1632 39.7048 33.9046 39.5756 33.5167 39.5756C33.1287 39.5756 32.7406 39.705 32.6114 39.9636L22.7821 50.4394H5.19293C4.41687 50.4394 3.77032 50.1807 3.253 49.6634C2.86504 49.146 2.60631 48.4993 2.60631 47.7234C2.60631 46.3008 3.89969 45.2662 5.45166 45.2662H18.1262C18.5141 45.2662 18.7729 45.1368 19.0315 45.1368L41.0179 20.5637C41.4059 20.1757 41.4059 19.6584 41.2767 19.1411C41.1473 18.6238 40.63 18.365 40.1127 18.365H33.646C33.3873 18.365 32.9993 18.4944 32.7408 18.753L23.9461 28.065C23.6874 28.4529 23.17 28.7117 22.6527 28.7117C22.1354 28.7117 21.6181 28.4529 21.2301 28.065C20.5834 27.2889 20.5834 26.125 21.3595 25.349L32.8701 14.3558H46.5793C47.0966 14.3558 47.7433 14.6146 48.1313 15.0025L57.5725 23.7972C58.9951 25.0905 61.1937 24.9612 62.4871 23.6678L69.2125 16.8132C69.8592 16.1665 71.1524 16.1665 71.7991 16.8132L71.9285 16.9426C72.575 17.5891 72.575 18.7531 71.9283 19.3998Z" fill="black"/>
<path d="M59.5125 15.5199C63.7805 15.5199 67.2725 12.028 67.2725 7.75986C67.2725 3.49175 63.7805 0 59.5125 0C55.2446 0 51.7525 3.4919 51.7525 7.76001C51.7525 12.0281 55.2446 15.5199 59.5125 15.5199ZM59.5125 2.58662C62.3579 2.58662 64.6858 4.91465 64.6858 7.75986C64.6858 10.6052 62.3577 12.9331 59.5125 12.9331C56.6673 12.9331 54.3393 10.6051 54.3393 7.75986C54.3393 4.91465 56.6673 2.58662 59.5125 2.58662Z" fill="black"/>
</svg>
