<svg width="75" height="55" viewBox="0 0 75 55" fill="none" xmlns="http://www.w3.org/2000/svg">
<path d="M35.6915 17.631C35.0741 17.9398 34.8227 18.6898 35.1315 19.3072C35.3515 19.7459 35.7927 19.9984 36.2515 19.9984C36.439 19.9984 36.6303 19.956 36.809 19.8672C36.9389 19.801 40.0003 18.2335 40.0003 14.9985C40.0003 13.231 39.0666 12.296 38.384 11.6147C37.7716 11.0023 37.5003 10.7009 37.5003 9.99841C37.5003 9.29587 37.7716 8.9947 38.384 8.38211C39.0665 7.70081 40.0003 6.7658 40.0003 4.99832C40.0003 1.76337 36.9391 0.195841 36.809 0.130802C36.1977 -0.174178 35.4515 0.0720613 35.1403 0.683339C34.8278 1.29711 35.0741 2.04711 35.684 2.36337C35.7014 2.37215 37.5003 3.32079 37.5003 4.99832C37.5003 5.70086 37.229 6.00203 36.6165 6.61463C35.9341 7.29593 35.0002 8.23093 35.0002 9.99841C35.0002 11.7659 35.9339 12.7009 36.6165 13.3822C37.229 13.9946 37.5003 14.296 37.5003 14.9985C37.5003 16.676 35.7016 17.6247 35.6915 17.631Z" fill="black"/>
<path d="M27.4995 17.4989C27.4995 19.1651 25.7258 20.1114 25.6833 20.1338C25.072 20.4451 24.8233 21.1926 25.1307 21.8075C25.3508 22.2463 25.792 22.4988 26.2508 22.4988C26.4383 22.4988 26.6296 22.4563 26.8083 22.3675C26.9382 22.3013 29.9996 20.7338 29.9996 17.4989C29.9996 15.7314 29.0659 14.7964 28.3833 14.1151C27.7708 13.5026 27.4995 13.2013 27.4995 12.4988C27.4995 10.8212 29.297 9.87246 29.3083 9.86747C29.9258 9.55869 30.1771 8.80752 29.867 8.18994C29.5595 7.57251 28.8095 7.31997 28.1908 7.63125C28.0609 7.69629 24.9995 9.26381 24.9995 12.4988C24.9995 14.2662 25.9332 15.2013 26.6158 15.8826C27.2284 16.495 27.4995 16.7963 27.4995 17.4989Z" fill="black"/>
<path d="M47.5005 17.4987C47.5005 19.1649 45.7281 20.1112 45.6856 20.1336C45.0731 20.4449 44.8244 21.1924 45.1319 21.8073C45.3519 22.2461 45.7931 22.4986 46.2519 22.4986C46.4394 22.4986 46.6307 22.4561 46.8094 22.3673C46.9407 22.3011 50.0007 20.7336 50.0007 17.4987C50.0007 15.7312 49.067 14.7962 48.3844 14.1149C47.772 13.5024 47.5007 13.2011 47.5007 12.4986C47.5007 10.821 49.2982 9.87225 49.3094 9.86727C49.9269 9.55848 50.1782 8.80731 49.8681 8.18973C49.5582 7.5723 48.8082 7.32225 48.1919 7.63104C48.0607 7.69608 45.0006 9.26361 45.0006 12.4986C45.0006 14.266 45.9343 15.201 46.6169 15.8823C47.2292 16.4948 47.5005 16.7961 47.5005 17.4987Z" fill="black"/>
<path d="M20.0275 30.9004L20.0275 30.9005C20.2404 31.2358 20.6801 31.348 21.0322 31.1505C22.2057 30.4862 23.5794 30.6838 24.5172 31.5462C24.7293 31.7402 25.0346 31.7961 25.3042 31.6901C25.5711 31.5823 25.7534 31.3318 25.7729 31.0446L25.7729 31.044C25.8807 29.4791 27.1828 28.2484 28.7492 28.2484C29.7567 28.2484 30.6915 28.7533 31.2486 29.5948L20.0275 30.9004ZM20.0275 30.9004C19.4726 30.0266 18.5288 29.4985 17.4991 29.4985C17.0853 29.4985 16.7494 29.1626 16.7494 28.7487C16.7494 28.3349 17.0856 27.9987 17.4994 27.9987C18.713 27.9987 19.8469 28.4829 20.6829 29.3269L20.8978 29.5438L21.189 29.4517C22.134 29.1527 23.17 29.1916 24.085 29.543L24.514 29.7077L24.7143 29.2942C25.4469 27.7818 26.9929 26.7488 28.7494 26.7488C29.7881 26.7488 30.774 27.1043 31.5609 27.7372L31.8742 27.9891L32.1875 27.7373C33.5475 26.6442 35.6128 26.4566 37.1377 27.2922L37.5034 27.4926L37.7662 27.1689C38.6069 26.1333 39.8822 25.4988 41.2493 25.4988C43.3415 25.4988 45.1079 26.9361 45.6076 28.876L45.7078 29.2652L46.1094 29.251C46.9013 29.2231 47.689 29.4176 48.3846 29.7976L48.7505 29.9974L49.0129 29.6735C49.8536 28.6354 51.1313 27.9987 52.4993 27.9987C54.1351 27.9987 55.6188 28.8997 56.4039 30.2897L56.5712 30.5858L56.9081 30.539C58.2958 30.3462 59.7106 30.8435 60.6822 31.8275L60.8974 32.0455L61.1893 31.9528C62.824 31.4335 64.6954 31.9593 65.8484 33.2427M20.0275 30.9004L65.8484 33.2427M37.1917 29.2168L37.1917 29.2168C37.3708 29.4095 37.6336 29.4943 37.8877 29.4423L37.8899 29.4418C38.1452 29.3908 38.3566 29.2104 38.4462 28.9671C38.4462 28.9671 38.4463 28.967 38.4463 28.9669L38.9155 29.1397C39.2767 28.1572 40.2142 27.4984 41.2493 27.4984L37.1917 29.2168ZM37.1917 29.2168C35.9012 27.8281 33.5291 28.0431 32.499 29.5943L32.4983 29.5953M37.1917 29.2168L32.4983 29.5953M50.1655 31.6397C50.0155 32.0472 49.6629 32.3472 49.2379 32.4322C48.8117 32.5185 48.3716 32.3759 48.0754 32.0572C47.4043 31.3321 46.4804 31.0209 45.3992 31.4109L61.2767 34.0861C60.6955 34.416 59.9604 34.2298 59.6055 33.6673C58.9731 32.6686 57.7093 32.2248 56.5718 32.6835M50.1655 31.6397C50.5267 30.6572 51.4642 29.9985 52.4993 29.9985C53.6168 29.9985 54.6042 30.7598 54.8993 31.8498C54.9917 32.1947 55.2293 32.4834 55.548 32.6422C55.8668 32.8022 56.2393 32.816 56.5718 32.6835M50.1655 31.6397L49.6963 31.467C49.6962 31.467 49.6962 31.4671 49.6962 31.4672M50.1655 31.6397L49.6962 31.4672M56.5718 32.6835L56.3868 32.219C56.3865 32.2192 56.3861 32.2193 56.3858 32.2194M56.5718 32.6835L56.3848 32.2198C56.3851 32.2197 56.3855 32.2196 56.3858 32.2194M56.3858 32.2194C57.7543 31.668 59.2709 32.2043 60.0279 33.3999L60.0284 33.4005C60.241 33.7375 60.6813 33.8491 61.0299 33.6513L61.0313 33.6505C62.316 32.9266 63.8299 33.2411 64.7312 34.2445L64.7317 34.245C64.8788 34.4093 65.0835 34.4936 65.2892 34.4936C65.4706 34.4936 65.648 34.4303 65.7887 34.303L65.7901 34.3016C66.0991 34.0242 66.1245 33.5503 65.8484 33.2427M56.3858 32.2194L65.8484 33.2427M49.6962 31.4672C49.6066 31.7105 49.3952 31.8908 49.1399 31.9419L49.1388 31.9421C48.8841 31.9937 48.6202 31.9088 48.4419 31.717M49.6962 31.4672L48.4419 31.717M48.4419 31.717C48.4419 31.717 48.4418 31.7169 48.4417 31.7168L48.0755 32.0571L48.4424 31.7175C48.4422 31.7174 48.4421 31.7172 48.4419 31.717ZM32.4983 29.5953C32.3768 29.7793 32.145 29.8959 31.8741 29.8959M32.4983 29.5953L31.8741 29.8959M31.8741 29.8959C31.6034 29.8959 31.371 29.7793 31.2487 29.5949L31.8741 29.8959ZM30.8318 29.8709C31.2955 30.571 32.4531 30.571 32.9155 29.8709L28.7492 28.7484C29.588 28.7484 30.3667 29.1684 30.8318 29.8709Z" fill="black" stroke="black"/>
<path d="M73.7499 37.4987H1.24995C0.560009 37.4987 0 38.0587 0 38.7487C0 42.1949 2.80371 44.9987 6.25004 44.9987H7.56883C8.19256 50.6162 12.9688 54.9987 18.7501 54.9987H56.25C62.0313 54.9987 66.8063 50.6162 67.43 44.9987H68.75C72.1961 44.9987 75 42.195 75 38.7487C74.9999 38.0587 74.4412 37.4987 73.7499 37.4987ZM68.7498 42.4987H66.2498C65.5585 42.4987 64.9998 43.0587 64.9998 43.7486C64.9998 48.5737 61.0736 52.4985 56.2499 52.4985H18.75C14.3487 52.4985 10.6974 49.2336 10.0888 44.9986H61.25C61.9412 44.9986 62.4999 44.4386 62.4999 43.7486C62.4999 43.0587 61.9412 42.4987 61.25 42.4987H6.25004C4.61996 42.4987 3.22997 41.4536 2.71376 39.9986H72.2861C71.7699 41.4536 70.3799 42.4987 68.7498 42.4987Z" fill="black"/>
<path d="M0.757719 27.3972L18.2577 34.8971C18.4177 34.9658 18.5853 34.9997 18.749 34.9997C19.2352 34.9997 19.6965 34.7146 19.8991 34.2409C20.1715 33.6059 19.8765 32.8708 19.2428 32.5997L1.74282 25.0997C1.10782 24.8272 0.371587 25.1223 0.101617 25.756C-0.17099 26.391 0.124029 27.1259 0.757719 27.3972Z" fill="black"/>
</svg>
