<svg width="70" height="57" viewBox="0 0 70 57" fill="none" xmlns="http://www.w3.org/2000/svg">
<path d="M58.537 20.5533C58.537 23.4988 60.9248 25.8866 63.8703 25.8866C66.8158 25.8866 69.2036 23.4988 69.2036 20.5533C69.2036 17.6078 66.8158 15.22 63.8703 15.22C60.9248 15.22 58.537 17.6078 58.537 20.5533ZM1.88624 48.003L0.962364 48.3857L0.962364 48.3857L1.88624 48.003ZM4.41005 9.41005L3.70295 8.70295L4.41005 9.41005ZM31.8549 6C31.8549 8.94552 34.2427 11.3333 37.1883 11.3333C40.1338 11.3333 42.5216 8.94552 42.5216 6C42.5216 3.05448 40.1338 0.666667 37.1883 0.666667C34.2427 0.666667 31.8549 3.05448 31.8549 6ZM62.8703 20.5533V43.5475H64.8703V20.5533H62.8703ZM62.8703 43.5475C62.8703 44.9451 62.595 46.3291 62.0602 47.6203L63.9079 48.3857C64.5433 46.8518 64.8703 45.2078 64.8703 43.5475H62.8703ZM62.0602 47.6203C61.5253 48.9115 60.7414 50.0848 59.7531 51.073L61.1674 52.4872C62.3413 51.3133 63.2726 49.9195 63.9079 48.3857L62.0602 47.6203ZM59.7531 51.073C58.7649 52.0613 57.5916 52.8452 56.3004 53.3801L57.0658 55.2278C58.5997 54.5925 59.9934 53.6612 61.1674 52.4872L59.7531 51.073ZM56.3004 53.3801C55.0092 53.9149 53.6253 54.1902 52.2276 54.1902V56.1902C53.8879 56.1902 55.5319 55.8632 57.0658 55.2278L56.3004 53.3801ZM52.2276 54.1902H12.6426V56.1902H52.2276V54.1902ZM12.6426 54.1902C11.245 54.1902 9.86111 53.9149 8.56988 53.3801L7.80451 55.2278C9.33839 55.8632 10.9824 56.1902 12.6426 56.1902V54.1902ZM8.56988 53.3801C7.27866 52.8452 6.10542 52.0613 5.11716 51.073L3.70295 52.4872C4.87692 53.6612 6.27064 54.5925 7.80451 55.2278L8.56988 53.3801ZM5.11716 51.073C4.1289 50.0848 3.34497 48.9115 2.81012 47.6203L0.962364 48.3857C1.59772 49.9195 2.52897 51.3133 3.70295 52.4872L5.11716 51.073ZM2.81012 47.6203C2.27528 46.3291 2 44.9451 2 43.5475H0C0 45.2078 0.327012 46.8518 0.962364 48.3857L2.81012 47.6203ZM2 43.5475V17.6426H0V43.5475H2ZM2 17.6426C2 14.82 3.12128 12.113 5.11716 10.1172L3.70295 8.70295C1.33199 11.0739 0 14.2896 0 17.6426H2ZM5.11716 10.1172C7.11304 8.12128 9.82004 7 12.6426 7V5C9.28961 5 6.0739 6.33199 3.70295 8.70295L5.11716 10.1172ZM12.6426 7H37.1883V5H12.6426V7Z" fill="black"/>
<mask id="path-2-inside-1_187_216" fill="white">
<path d="M31.0827 18.6941C30.0633 18.0791 28.8976 17.7487 27.7071 17.7375C26.5166 17.7262 25.3448 18.0344 24.314 18.63C23.2853 19.2049 22.4296 20.0451 21.8361 21.063C21.2425 22.081 20.9327 23.2395 20.9391 24.4179V35.8102C20.9327 36.9886 21.2425 38.1471 21.8361 39.165C22.4296 40.183 23.2853 41.0232 24.314 41.5981C25.345 42.1932 26.5167 42.5012 27.7071 42.4899C28.8975 42.4787 30.0631 42.1486 31.0827 41.534L40.6675 35.8379C41.6622 35.2497 42.4865 34.4126 43.0591 33.4089C43.6316 32.4052 43.9328 31.2696 43.9328 30.114C43.9328 28.9585 43.6316 27.8229 43.0591 26.8192C42.4865 25.8155 41.6622 24.9783 40.6675 24.3902L31.0827 18.6941ZM37.6943 30.833L28.108 36.5306C28.108 36.5306 27.3644 36.6368 27.1926 36.5379C27.0592 36.4694 26.9476 36.365 26.8704 36.2364C26.7932 36.1078 26.7536 35.9602 26.756 35.8102V24.4164C26.7538 24.2665 26.7935 24.1189 26.8706 23.9904C26.9478 23.8618 27.0593 23.7573 27.1926 23.6888C27.3313 23.6061 27.4901 23.5633 27.6516 23.5648C27.813 23.5663 27.9709 23.6122 28.108 23.6975L37.6943 29.3936C37.821 29.4663 37.9263 29.5711 37.9995 29.6974C38.0727 29.8238 38.1113 29.9673 38.1113 30.1133C38.1113 30.2594 38.0727 30.4028 37.9995 30.5292C37.9263 30.6555 37.821 30.7603 37.6943 30.833Z"/>
</mask>
<path d="M31.0827 18.6941L23.8508 30.6815L23.8905 30.7055L23.9304 30.7292L31.0827 18.6941ZM24.314 18.63L31.1437 30.8511L31.2311 30.8023L31.3178 30.7522L24.314 18.63ZM20.9391 24.4179H34.9391V24.3802L34.9389 24.3426L20.9391 24.4179ZM20.9391 35.8102L34.9389 35.8855L34.9391 35.8479V35.8102H20.9391ZM24.314 41.5981L31.3131 29.4732L31.2287 29.4245L31.1437 29.377L24.314 41.5981ZM31.0827 41.534L23.9304 29.4989L23.8929 29.5212L23.8555 29.5437L31.0827 41.534ZM40.6675 35.8379L33.5424 23.7866L33.5288 23.7947L33.5152 23.8027L40.6675 35.8379ZM40.6675 24.3902L33.5152 36.4253L33.5288 36.4334L33.5424 36.4414L40.6675 24.3902ZM37.6943 30.833L30.7312 18.6874L30.6359 18.742L30.5414 18.7982L37.6943 30.833ZM28.108 36.5306L30.088 50.3899L32.8567 49.9943L35.2609 48.5654L28.108 36.5306ZM27.1926 36.5379L34.1828 24.4079L33.8865 24.2371L33.5821 24.081L27.1926 36.5379ZM26.756 35.8102L40.7542 36.0345L40.756 35.9223V35.8102H26.756ZM26.756 24.4164H40.756V24.3121L40.7545 24.2079L26.756 24.4164ZM27.1926 23.6888L33.5961 36.1385L33.9827 35.9396L34.3562 35.7172L27.1926 23.6888ZM28.108 23.6975L20.7163 35.5871L20.8356 35.6613L20.9565 35.7331L28.108 23.6975ZM37.6943 29.3936L30.5427 41.4292L30.6366 41.485L30.7312 41.5393L37.6943 29.3936ZM38.3146 6.70657C35.1512 4.79813 31.5339 3.77303 27.8395 3.73808L27.5747 31.7368C26.2613 31.7244 24.9754 31.36 23.8508 30.6815L38.3146 6.70657ZM27.8395 3.73808C24.1452 3.70313 20.5091 4.65961 17.3102 6.50786L31.3178 30.7522C30.1806 31.4092 28.888 31.7492 27.5747 31.7368L27.8395 3.73808ZM17.4842 6.40895C14.2702 8.20512 11.5966 10.8303 9.74195 14.0109L33.9302 28.1151C33.2627 29.2599 32.3005 30.2046 31.1437 30.8511L17.4842 6.40895ZM9.74195 14.0109C7.8873 17.1916 6.91947 20.8113 6.93927 24.4932L34.9389 24.3426C34.946 25.6677 34.5977 26.9704 33.9302 28.1151L9.74195 14.0109ZM6.93907 24.4179V35.8102H34.9391V24.4179H6.93907ZM6.93927 35.7349C6.91947 39.4167 7.8873 43.0365 9.74195 46.2172L33.9302 32.1129C34.5977 33.2576 34.946 34.5604 34.9389 35.8855L6.93927 35.7349ZM9.74195 46.2172C11.5966 49.3978 14.2702 52.023 17.4842 53.8191L31.1437 29.377C32.3005 30.0234 33.2627 30.9682 33.9302 32.1129L9.74195 46.2172ZM17.3149 53.7229C20.5129 55.569 24.1472 56.5242 27.8395 56.4893L27.5747 28.4905C28.8862 28.4781 30.1771 28.8174 31.3131 29.4732L17.3149 53.7229ZM27.8395 56.4893C31.5319 56.4544 35.1475 55.4305 38.31 53.5243L23.8555 29.5437C24.9788 28.8666 26.2631 28.503 27.5747 28.4905L27.8395 56.4893ZM38.2351 53.5691L47.8199 47.873L33.5152 23.8027L23.9304 29.4989L38.2351 53.5691ZM47.7927 47.8891C50.8817 46.0627 53.4414 43.463 55.2195 40.346L30.8986 26.4718C31.5316 25.3622 32.4428 24.4368 33.5424 23.7866L47.7927 47.8891ZM55.2195 40.346C56.9976 37.229 57.9328 33.7025 57.9328 30.114H29.9328C29.9328 28.8366 30.2657 27.5813 30.8986 26.4718L55.2195 40.346ZM57.9328 30.114C57.9328 26.5256 56.9976 22.999 55.2195 19.8821L30.8986 33.7563C30.2657 32.6468 29.9328 31.3914 29.9328 30.114H57.9328ZM55.2195 19.8821C53.4414 16.7651 50.8817 14.1653 47.7927 12.339L33.5424 36.4414C32.4428 35.7913 31.5316 34.8659 30.8986 33.7563L55.2195 19.8821ZM47.8199 12.3551L38.2351 6.65895L23.9304 30.7292L33.5152 36.4253L47.8199 12.3551ZM30.5414 18.7982L20.9551 24.4958L35.2609 48.5654L44.8472 42.8678L30.5414 18.7982ZM28.108 36.5306C26.1281 22.6713 26.1292 22.6711 26.1303 22.671C26.1306 22.6709 26.1317 22.6708 26.1325 22.6707C26.1339 22.6705 26.1354 22.6703 26.1368 22.6701C26.1397 22.6696 26.1426 22.6692 26.1454 22.6688C26.1511 22.668 26.1567 22.6672 26.1622 22.6665C26.1732 22.6649 26.1839 22.6634 26.1944 22.662C26.2152 22.6591 26.2352 22.6565 26.2547 22.6539C26.2928 22.6489 26.332 22.644 26.3731 22.6392C26.4405 22.6314 26.5744 22.6166 26.759 22.604C26.8824 22.5956 27.3522 22.5637 27.9977 22.5909C28.3173 22.6044 28.9478 22.6421 29.7423 22.784C30.3199 22.8871 32.1413 23.2314 34.1828 24.4079L20.2024 48.6679C22.2869 49.8691 24.1691 50.2317 24.8202 50.348C25.6883 50.503 26.405 50.5486 26.8185 50.5661C27.6517 50.6012 28.3397 50.5613 28.6704 50.5387C29.0624 50.5119 29.393 50.4767 29.6052 50.4521C29.7187 50.4389 29.8174 50.4264 29.8968 50.416C29.9369 50.4108 29.9731 50.4059 30.0049 50.4015C30.0208 50.3993 30.0357 50.3973 30.0496 50.3953C30.0565 50.3943 30.0632 50.3934 30.0696 50.3925C30.0728 50.392 30.0759 50.3916 30.079 50.3912C30.0805 50.3909 30.082 50.3907 30.0835 50.3905C30.0843 50.3904 30.0854 50.3902 30.0858 50.3902C30.0869 50.39 30.088 50.3899 28.108 36.5306ZM33.5821 24.081C35.7743 25.2054 37.6078 26.921 38.8753 29.0334L14.8655 43.4393C16.2873 45.809 18.3441 47.7335 20.8031 48.9948L33.5821 24.081ZM38.8753 29.0334C40.1428 31.1459 40.7937 33.5711 40.7542 36.0345L12.7578 35.5859C12.7136 38.3492 13.4437 41.0696 14.8655 43.4393L38.8753 29.0334ZM40.756 35.8102V24.4164H12.756V35.8102H40.756ZM40.7545 24.2079C40.7911 26.6659 40.1404 29.0853 38.8755 31.1933L14.8657 16.7874C13.4466 19.1526 12.7165 21.8671 12.7576 24.6249L40.7545 24.2079ZM38.8755 31.1933C37.6107 33.3014 35.7822 35.0141 33.5961 36.1385L20.7891 11.2391C18.3364 12.5006 16.2848 14.4222 14.8657 16.7874L38.8755 31.1933ZM34.3562 35.7172C32.2894 36.9481 29.9238 37.5871 27.518 37.5642L27.7851 9.56543C25.0564 9.5394 22.3733 10.2642 20.029 11.6603L34.3562 35.7172ZM27.518 37.5642C25.1123 37.5412 22.7593 36.8572 20.7163 35.5871L35.4998 11.8079C33.1826 10.3673 30.5137 9.59146 27.7851 9.56543L27.518 37.5642ZM20.9565 35.7331L30.5427 41.4292L44.8458 17.3581L35.2596 11.6619L20.9565 35.7331ZM30.7312 41.5393C28.7197 40.3861 27.0482 38.7222 25.8858 36.7159L50.1132 22.679C48.8043 20.4199 46.9222 18.5465 44.6573 17.248L30.7312 41.5393ZM25.8858 36.7159C24.7234 34.7097 24.1113 32.4321 24.1113 30.1133H52.1113C52.1113 27.5025 51.422 24.938 50.1132 22.679L25.8858 36.7159ZM24.1113 30.1133C24.1113 27.7946 24.7234 25.517 25.8858 23.5107L50.1132 37.5476C51.422 35.2886 52.1113 32.7241 52.1113 30.1133H24.1113ZM25.8858 23.5107C27.0482 21.5045 28.7196 19.8406 30.7312 18.6874L44.6573 42.9786C46.9223 41.6801 48.8043 39.8066 50.1132 37.5476L25.8858 23.5107Z" fill="black" mask="url(#path-2-inside-1_187_216)"/>
</svg>
